# xmcd
#
# Track frame offsets: 
#        150
#        17985
#        35540
#        57465
#        76605
#        97642
#        118010
#        140900
#        161322
#        188767
#        212252
#
# Disc length: 3287 seconds
#
# Revision: 0
# Processed by: cddbd v1.5.1PL0 Copyright (c) Steve Scherf et al.
# Submitted via: ExactAudioCopy v0.95a5
#
DISCID=850cd50b
DTITLE=Ray Lyell Band - Desert Winds
DYEAR=1992
DGENRE=Country
TTITLE0=Gypsy Wind
TTITLE1=Bitter Creek
TTITLE2=Desert Nights
TTITLE3=Hole In My Head
TTITLE4=Fool's Crown
TTITLE5=Sundown
TTITLE6=Don't Let Go
TTITLE7=Smoky Mountain Rain
TTITLE8=Bite The Bullet
TTITLE9=The Almost Legend Of Billy Doon
TTITLE10=One For The Old Guard
EXTD=
EXTT0=
EXTT1=
EXTT2=
EXTT3=
EXTT4=
EXTT5=
EXTT6=
EXTT7=
EXTT8=
EXTT9=
EXTT10=
PLAYORDER=
